<?xml version="1.0" encoding="UTF-8"?>
<svg width="200" height="200" viewBox="0 0 200 200" version="1.1" xmlns="http://www.w3.org/2000/svg">
    <style>
        text { 
            font: bold 32px sans-serif; 
            fill: black;
        }
        .grid { 
            stroke: black; 
            stroke-width: 4; 
            rx: 8;
            ry: 8;
        }
        .filled { 
            fill: #40E0D0;
        }
        .empty { 
            fill: white; 
        }
    </style>
    <g transform="translate(30, 30)">
        <!-- Numbers on top -->
        <text x="35" y="-5" text-anchor="middle">4</text>
        <text x="75" y="-5" text-anchor="middle">1</text>
        <text x="115" y="-5" text-anchor="middle">1</text>
        <text x="155" y="-5" text-anchor="middle">4</text>
        
        <!-- Numbers on left -->
        <text x="-8" y="35" text-anchor="end">2</text>
        <text x="-8" y="75" text-anchor="end">3</text>
        <text x="-8" y="115" text-anchor="end">3</text>
        <text x="-8" y="155" text-anchor="end">2</text>
        
        <!-- Main border with rounded corners -->
        <rect class="grid" x="0" y="0" width="160" height="160" fill="none" rx="8" ry="8"/>
        
        <!-- Grid lines -->
        <line class="grid" x1="40" y1="0" x2="40" y2="160"/>
        <line class="grid" x1="80" y1="0" x2="80" y2="160"/>
        <line class="grid" x1="120" y1="0" x2="120" y2="160"/>
        <line class="grid" x1="0" y1="40" x2="160" y2="40"/>
        <line class="grid" x1="0" y1="80" x2="160" y2="80"/>
        <line class="grid" x1="0" y1="120" x2="160" y2="120"/>
        
        <!-- Filled squares -->
        <rect class="filled" x="0" y="0" width="40" height="40"/>
        <rect class="filled" x="120" y="0" width="40" height="40"/>
        <rect class="filled" x="0" y="40" width="80" height="40"/>
        <rect class="filled" x="120" y="40" width="40" height="40"/>
        <rect class="filled" x="0" y="80" width="40" height="40"/>
        <rect class="filled" x="80" y="80" width="80" height="40"/>
        <rect class="filled" x="0" y="120" width="40" height="40"/>
        <rect class="filled" x="120" y="120" width="40" height="40"/>
    </g>
</svg> 